solid 
 facet normal  0.000000e+00 -1.000000e+00  0.000000e+00
   outer loop
     vertex  5.030712e-02 -1.700000e+00  4.292000e-01
     vertex  4.440209e-02 -1.700000e+00  4.319716e-01
     vertex -5.030712e-02 -1.700000e+00  4.292000e-01
   endloop
 endfacet
 facet normal -0.000000e+00 -1.000000e+00  0.000000e+00
   outer loop
     vertex  4.440209e-02 -1.700000e+00  4.319716e-01
     vertex -4.440209e-02 -1.700000e+00  4.319716e-01
     vertex -5.030712e-02 -1.700000e+00  4.292000e-01
   endloop
 endfacet
 facet normal  0.000000e+00 -1.000000e+00  0.000000e+00
   outer loop
     vertex  4.440209e-02 -1.700000e+00  4.319716e-01
     vertex  3.834510e-02 -1.700000e+00  4.343931e-01
     vertex -4.440209e-02 -1.700000e+00  4.319716e-01
   endloop
 endfacet
 facet normal -0.000000e+00 -1.000000e+00  0.000000e+00
   outer loop
     vertex  3.834510e-02 -1.700000e+00  4.343931e-01
     vertex  3.215686e-02 -1.700000e+00  4.364563e-01
     vertex -4.440209e-02 -1.700000e+00  4.319716e-01
   endloop
 endfacet
 facet normal -0.000000e+00 -1.000000e+00  0.000000e+00
   outer loop
     vertex  3.215686e-02 -1.700000e+00  4.364563e-01
     vertex  2.585857e-02 -1.700000e+00  4.381541e-01
     vertex -4.440209e-02 -1.700000e+00  4.319716e-01
   endloop
 endfacet
 facet normal -0.000000e+00 -1.000000e+00  0.000000e+00
   outer loop
     vertex  2.585857e-02 -1.700000e+00  4.381541e-01
     vertex  1.947177e-02 -1.700000e+00  4.394806e-01
     vertex -4.440209e-02 -1.700000e+00  4.319716e-01
   endloop
 endfacet
 facet normal -0.000000e+00 -1.000000e+00  0.000000e+00
   outer loop
     vertex  1.947177e-02 -1.700000e+00  4.394806e-01
     vertex  1.301832e-02 -1.700000e+00  4.404314e-01
     vertex -4.440209e-02 -1.700000e+00  4.319716e-01
   endloop
 endfacet
 facet normal -0.000000e+00 -1.000000e+00  0.000000e+00
   outer loop
     vertex  1.301832e-02 -1.700000e+00  4.404314e-01
     vertex  6.520319e-03 -1.700000e+00  4.410032e-01
     vertex -4.440209e-02 -1.700000e+00  4.319716e-01
   endloop
 endfacet
 facet normal -0.000000e+00 -1.000000e+00  0.000000e+00
   outer loop
     vertex  6.520319e-03 -1.700000e+00  4.410032e-01
     vertex  7.453284e-17 -1.700000e+00  4.411940e-01
     vertex -4.440209e-02 -1.700000e+00  4.319716e-01
   endloop
 endfacet
 facet normal  0.000000e+00 -1.000000e+00  0.000000e+00
   outer loop
     vertex  7.453284e-17 -1.700000e+00  4.411940e-01
     vertex -6.520319e-03 -1.700000e+00  4.410032e-01
     vertex -4.440209e-02 -1.700000e+00  4.319716e-01
   endloop
 endfacet
 facet normal  0.000000e+00 -1.000000e+00  0.000000e+00
   outer loop
     vertex -6.520319e-03 -1.700000e+00  4.410032e-01
     vertex -1.301832e-02 -1.700000e+00  4.404314e-01
     vertex -4.440209e-02 -1.700000e+00  4.319716e-01
   endloop
 endfacet
 facet normal  0.000000e+00 -1.000000e+00  0.000000e+00
   outer loop
     vertex -1.301832e-02 -1.700000e+00  4.404314e-01
     vertex -1.947177e-02 -1.700000e+00  4.394806e-01
     vertex -4.440209e-02 -1.700000e+00  4.319716e-01
   endloop
 endfacet
 facet normal  0.000000e+00 -1.000000e+00  0.000000e+00
   outer loop
     vertex -1.947177e-02 -1.700000e+00  4.394806e-01
     vertex -2.585857e-02 -1.700000e+00  4.381541e-01
     vertex -4.440209e-02 -1.700000e+00  4.319716e-01
   endloop
 endfacet
 facet normal  0.000000e+00 -1.000000e+00  0.000000e+00
   outer loop
     vertex -2.585857e-02 -1.700000e+00  4.381541e-01
     vertex -3.215686e-02 -1.700000e+00  4.364563e-01
     vertex -4.440209e-02 -1.700000e+00  4.319716e-01
   endloop
 endfacet
 facet normal  0.000000e+00 -1.000000e+00  0.000000e+00
   outer loop
     vertex -3.215686e-02 -1.700000e+00  4.364563e-01
     vertex -3.834510e-02 -1.700000e+00  4.343931e-01
     vertex -4.440209e-02 -1.700000e+00  4.319716e-01
   endloop
 endfacet
endsolid
